<svg xmlns="http://www.w3.org/2000/svg" xmlns:xlink="http://www.w3.org/1999/xlink" xmlns:lucid="lucid" width="1760.57" height="1053.09"><g transform="translate(-50.64960629921245 -120)" lucid:page-tab-id="0_0"><path d="M0 0h1870.87v1322.83H0z" fill="#fff"/><path d="M310.65 525.7c0-3.3 2.7-6 6-6h148c3.3 0 6 2.7 6 6v85.94c0 3.32-2.7 6-6 6h-148c-3.3 0-6-2.68-6-6z" stroke="#5e5e5e" stroke-width="3" fill="#f7daff"/><use xlink:href="#a" transform="matrix(1,0,0,1,322.64960629921245,531.7012397307558) translate(23.586419753086417 40.90277777777778)"/><path d="M473.7 687.64c8.7 0 15.77 8.96 15.77 20 0 11.05-7.06 20-15.77 20h-47.3c-8.7 0-15.75-8.95-15.75-20 0-11.04 7.06-20 15.76-20z" stroke="#5e5e5e" stroke-width="3" fill="#fff"/><use xlink:href="#b" transform="matrix(1,0,0,1,415.6496062992124,692.6441113983706) translate(28.3 18.425)"/><path d="M230.65 427.64c11.05 0 20 8.96 20 20 0 11.05-8.95 20-20 20h-60c-11.05 0-20-8.95-20-20 0-11.04 8.95-20 20-20z" stroke="#5e5e5e" stroke-width="3" fill="#fff"/><use xlink:href="#c" transform="matrix(1,0,0,1,155.64960629921245,432.6441113983707) translate(10.822222222222223 18.425)"/><path d="M354.65 387.64c8.84 0 16 8.96 16 20 0 11.05-7.16 20-16 20h-48c-8.84 0-16-8.95-16-20 0-11.04 7.16-20 16-20z" stroke="#5e5e5e" stroke-width="3" fill="#fff"/><use xlink:href="#d" transform="matrix(1,0,0,1,295.64960629921245,392.6441113983707) translate(15.022222222222222 18.425)"/><path d="M190.65 512.26c11.05 0 20 8.96 20 20 0 11.05-8.95 20-20 20h-60c-11.05 0-20-8.95-20-20 0-11.04 8.95-20 20-20z" stroke="#5e5e5e" stroke-width="3" fill="#fff"/><use xlink:href="#e" transform="matrix(1,0,0,1,115.64960629921245,517.2645071118436) translate(4.555555555555564 18.425)"/><path d="M230.65 624.86c11.05 0 20 8.96 20 20 0 11.05-8.95 20-20 20h-60c-11.05 0-20-8.95-20-20 0-11.04 8.95-20 20-20z" stroke="#5e5e5e" stroke-width="3" fill="#fff"/><use xlink:href="#f" transform="matrix(1,0,0,1,155.64960629921245,629.8645071118436) translate(9.044444444444451 18.425)"/><path d="M290.65 687.64c11.05 0 20 8.96 20 20 0 11.05-8.95 20-20 20h-60c-11.05 0-20-8.95-20-20 0-11.04 8.95-20 20-20z" stroke="#5e5e5e" stroke-width="3" fill="#fff"/><use xlink:href="#g" transform="matrix(1,0,0,1,215.64960629921245,692.6441113983706) translate(12.111111111111114 18.425)"/><path d="M490.65 427.64c11.05 0 20 8.96 20 20 0 11.05-8.95 20-20 20h-60c-11.05 0-20-8.95-20-20 0-11.04 8.95-20 20-20z" stroke="#5e5e5e" stroke-width="3" fill="#fff"/><use xlink:href="#h" transform="matrix(1,0,0,1,415.64960629921245,432.6441113983707) translate(7.68888888888889 18.425)"/><use xlink:href="#i" transform="matrix(1,0,0,1,415.64960629921245,432.6441113983707) translate(24.533333333333335 18.425)"/><use xlink:href="#j" transform="matrix(1,0,0,1,415.64960629921245,432.6441113983707) translate(46.75555555555555 18.425)"/><path d="M450.06 685.14v-26.5c0-3.3-2.7-6-6-6H420.7c-3.32 0-6-2.68-6-6v-26.5" stroke="#5e5e5e" stroke-width="2" fill="none"/><path d="M451.06 686.14h-2v-1.02h2zM415.7 620.17h-2v-1.03h2z" fill="#5e5e5e"/><path d="M330.65 430.14v37.53c0 3.32 2.7 6 6 6h24.87c3.32 0 6 2.7 6 6v37.53" stroke="#5e5e5e" stroke-width="2" fill="none"/><path d="M331.65 430.17h-2v-1.03h2zM368.52 518.2h-2v-1.02h2z" fill="#5e5e5e"/><path d="M253.15 447.64h21.5c3.3 0 6 2.7 6 6v91.18c0 3.3 2.7 6 6 6h21.5" stroke="#5e5e5e" stroke-width="2" fill="none"/><path d="M253.18 448.64h-1.14l.1-.93-.02-1.06h1.06zM309.15 551.82h-1.03v-2h1.03z" fill="#5e5e5e"/><path d="M213.15 532.26h41.5c3.3 0 6 2.7 6 6v38.3c0 3.3 2.7 6 6 6h41.5" stroke="#5e5e5e" stroke-width="2" fill="none"/><path d="M213.18 533.26h-1.14l.1-.93-.02-1.07h1.06zM309.15 583.55h-1.03v-2h1.03z" fill="#5e5e5e"/><path d="M253.15 644.86h21.5c3.3 0 6-2.68 6-6v-24c0-3.3 2.7-6 6-6h21.5" stroke="#5e5e5e" stroke-width="2" fill="none"/><path d="M253.18 645.86h-1.14l.1-.93-.02-1.07h1.06zM309.15 609.86h-1.03v-2h1.03z" fill="#5e5e5e"/><path d="M313.15 707.64h40.8c3.3 0 6-2.68 6-6v-81.5" stroke="#5e5e5e" stroke-width="2" fill="none"/><path d="M313.18 708.64h-1.14l.1-.93-.02-1.06h1.06zM360.94 620.17h-2v-1.03h2z" fill="#5e5e5e"/><path d="M460.65 470.14v17.53c0 3.32-2.7 6-6 6H417.6c-3.32 0-6 2.7-6 6v17.53" stroke="#5e5e5e" stroke-width="2" fill="none"/><path d="M461.65 470.17h-2v-1.03h2zM412.6 518.2h-2v-1.02h2z" fill="#5e5e5e"/><path d="M680.65 525.17c0-3.3 2.7-6 6-6h168c3.3 0 6 2.7 6 6v88c0 3.32-2.7 6-6 6h-168c-3.3 0-6-2.68-6-6z" stroke="#5e5e5e" stroke-width="3" fill="#f7daff"/><use xlink:href="#k" transform="matrix(1,0,0,1,692.6496062992125,531.1733859236703) translate(2.1666666666666714 41.52777777777778)"/><path d="M630.65 553.02c11.05 0 20 8.96 20 20 0 11.05-8.95 20-20 20h-60c-11.05 0-20-8.95-20-20 0-11.04 8.95-20 20-20z" stroke="#5e5e5e" stroke-width="3" fill="#fff"/><use xlink:href="#b" transform="matrix(1,0,0,1,555.6496062992125,558.0237156848978) translate(38.8 18.425)"/><path d="M800.65 409.17c11.05 0 20 8.96 20 20 0 11.05-8.95 20-20 20h-60c-11.05 0-20-8.95-20-20 0-11.04 8.95-20 20-20z" stroke="#5e5e5e" stroke-width="3" fill="#fff"/><use xlink:href="#l" transform="matrix(1,0,0,1,725.6496062992125,414.1733859236703) translate(25.02222222222222 18.425)"/><path d="M770.65 451.67v65" stroke="#5e5e5e" stroke-width="2" fill="none"/><path d="M771.65 451.7h-2v-1.03h2zM771.65 517.67h-2v-1.02h2z" fill="#5e5e5e"/><path d="M653.15 573.02h25" stroke="#5e5e5e" stroke-width="2" fill="none"/><path d="M653.18 574.02h-1.14l.1-.93-.02-1.08h1.06zM679.15 574.02h-1.03v-2h1.03z" fill="#5e5e5e"/><path d="M600.65 531.52v-77.88c0-3.3-2.7-6-6-6h-63.68" stroke="#5e5e5e" stroke-width="2" fill="none"/><path d="M610.65 541.52h-20M600.65 551.52v-20M610.65 531.52h-20M512.6 437.64l20 10-20 10M512.6 447.64h20" stroke="#5e5e5e" stroke-width="2" fill="#fff"/><path d="M1070.65 526.46c0-3.3 2.7-6 6-6h148c3.3 0 6 2.7 6 6v88c0 3.3-2.7 6-6 6h-148c-3.3 0-6-2.7-6-6z" stroke="#5e5e5e" stroke-width="3" fill="#f7daff"/><use xlink:href="#m" transform="matrix(1,0,0,1,1082.6496062992123,532.4604483038099) translate(27.969135802469133 41.52777777777778)"/><path d="M1210.65 433.02c11.05 0 20 8.96 20 20 0 11.05-8.95 20-20 20h-60c-11.05 0-20-8.95-20-20 0-11.04 8.95-20 20-20z" stroke="#5e5e5e" stroke-width="3" fill="#fff"/><use xlink:href="#l" transform="matrix(1,0,0,1,1135.6496062992123,438.02371568489775) translate(25.02222222222222 18.425)"/><path d="M1030.65 453.02c11.05 0 20 8.96 20 20 0 11.05-8.95 20-20 20h-60c-11.05 0-20-8.95-20-20 0-11.04 8.95-20 20-20z" stroke="#5e5e5e" stroke-width="3" fill="#fff"/><use xlink:href="#n" transform="matrix(1,0,0,1,955.6496062992125,458.02371568489775) translate(25.955555555555556 18.425)"/><path d="M1030.65 537.64c11.05 0 20 8.96 20 20 0 11.05-8.95 20-20 20h-60c-11.05 0-20-8.95-20-20 0-11.04 8.95-20 20-20z" stroke="#5e5e5e" stroke-width="3" fill="#fff"/><use xlink:href="#o" transform="matrix(1,0,0,1,955.6496062992125,542.6441113983707) translate(10.800000000000004 18.425)"/><path d="M1030.65 633.02c11.05 0 20 8.96 20 20 0 11.05-8.95 20-20 20h-60c-11.05 0-20-8.95-20-20 0-11.04 8.95-20 20-20z" stroke="#5e5e5e" stroke-width="3" fill="#fff"/><use xlink:href="#p" transform="matrix(1,0,0,1,955.6496062992125,638.0237156848978) translate(23.22222222222222 18.425)"/><path d="M1180.65 663.7c11.05 0 20 8.95 20 20 0 11.04-8.95 20-20 20h-60c-11.05 0-20-8.96-20-20 0-11.05 8.95-20 20-20z" stroke="#5e5e5e" stroke-width="3" fill="#fff"/><use xlink:href="#b" transform="matrix(1,0,0,1,1105.6496062992123,668.697180922722) translate(38.8 18.425)"/><path d="M1180.65 475.52v15.22c0 3.32-2.7 6-6 6h-18c-3.3 0-6 2.7-6 6v15.22" stroke="#5e5e5e" stroke-width="2" fill="none"/><path d="M1181.65 475.55h-2v-1.03h2zM1151.65 518.96h-2v-1.03h2z" fill="#5e5e5e"/><path d="M1150.65 661.2v-38.24" stroke="#5e5e5e" stroke-width="2" fill="none"/><path d="M1151.65 662.2h-2v-1.03h2zM1151.65 623h-2v-1.04h2z" fill="#5e5e5e"/><path d="M1053.15 473.02h31.2c3.32 0 6 2.7 6 6v38.94" stroke="#5e5e5e" stroke-width="2" fill="none"/><path d="M1053.18 474.02h-1.14l.1-.93-.02-1.08h1.06zM1091.36 518.96h-2v-1.03h2z" fill="#5e5e5e"/><path d="M1053.15 557.64h15" stroke="#5e5e5e" stroke-width="2" fill="none"/><path d="M1053.18 558.64h-1.14l.1-.93-.02-1.06h1.06zM1069.15 558.64h-1.03v-2h1.03z" fill="#5e5e5e"/><path d="M1053.15 653.02h31.23c3.32 0 6-2.68 6-6v-24.06" stroke="#5e5e5e" stroke-width="2" fill="none"/><path d="M1053.18 654.02h-1.14l.1-.93-.02-1.08h1.06zM1091.38 623h-2v-1.04h2z" fill="#5e5e5e"/><path d="M1460.65 524.4c0-3.3 2.7-6 6-6h148c3.3 0 6 2.7 6 6v88c0 3.32-2.7 6-6 6h-148c-3.3 0-6-2.68-6-6z" stroke="#5e5e5e" stroke-width="3" fill="#f7daff"/><use xlink:href="#q" transform="matrix(1,0,0,1,1472.6496062992123,530.4033199714248) translate(14.944444444444443 41.52777777777778)"/><path d="M1570.65 419.24c11.05 0 20 10.84 20 24.2 0 13.37-8.95 24.2-20 24.2h-60c-11.05 0-20-10.83-20-24.2 0-13.36 8.95-24.2 20-24.2z" stroke="#5e5e5e" stroke-width="3" fill="#fff"/><use xlink:href="#h" transform="matrix(1,0,0,1,1495.6496062992123,424.2441113983707) translate(12.604999999999999 12.8)"/><use xlink:href="#r" transform="matrix(1,0,0,1,1495.6496062992123,424.2441113983707) translate(29.449444444444445 12.8)"/><use xlink:href="#s" transform="matrix(1,0,0,1,1495.6496062992123,424.2441113983707) translate(59.62722222222222 12.8)"/><use xlink:href="#t" transform="matrix(1,0,0,1,1495.6496062992123,424.2441113983707) translate(11.693888888888887 32)"/><path d="M1310.65 891.86c11.05 0 20 8.95 20 20 0 11.04-8.95 20-20 20h-60c-11.05 0-20-8.96-20-20 0-11.05 8.95-20 20-20z" stroke="#5e5e5e" stroke-width="3" fill="#fff"/><use xlink:href="#h" transform="matrix(1,0,0,1,1235.6496062992123,896.8587486610203) translate(2.4000000000000057 18.425)"/><use xlink:href="#i" transform="matrix(1,0,0,1,1235.6496062992123,896.8587486610203) translate(19.24444444444445 18.425)"/><use xlink:href="#u" transform="matrix(1,0,0,1,1235.6496062992123,896.8587486610203) translate(41.46666666666667 18.425)"/><path d="M1730.65 400.77c11.05 0 20 10.84 20 24.2 0 13.37-8.95 24.2-20 24.2h-60c-11.05 0-20-10.83-20-24.2 0-13.36 8.95-24.2 20-24.2z" stroke="#5e5e5e" stroke-width="3" fill="#fff"/><use xlink:href="#v" transform="matrix(1,0,0,1,1655.6496062992123,405.77338592367033) translate(21.02722222222222 12.8)"/><use xlink:href="#w" transform="matrix(1,0,0,1,1655.6496062992123,405.77338592367033) translate(51.205 12.8)"/><use xlink:href="#x" transform="matrix(1,0,0,1,1655.6496062992123,405.77338592367033) translate(6.849444444444446 32)"/><path d="M1730.65 473.02c11.05 0 20 10.84 20 24.2 0 13.37-8.95 24.2-20 24.2h-60c-11.05 0-20-10.83-20-24.2 0-13.36 8.95-24.2 20-24.2z" stroke="#5e5e5e" stroke-width="3" fill="#fff"/><use xlink:href="#y" transform="matrix(1,0,0,1,1655.6496062992123,478.02371568489775) translate(6.8444444444444485 22.55)"/><path d="M1740.65 570.77c11.05 0 20 10.84 20 24.2 0 13.37-8.95 24.2-20 24.2h-60c-11.05 0-20-10.83-20-24.2 0-13.36 8.95-24.2 20-24.2z" stroke="#5e5e5e" stroke-width="3" fill="#fff"/><use xlink:href="#z" transform="matrix(1,0,0,1,1665.6496062992123,575.7733859236703) translate(17.93333333333333 22.55)"/><path d="M1696.65 639.24c13.25 0 24 10.84 24 24.2 0 13.37-10.75 24.2-24 24.2h-72c-13.26 0-24-10.83-24-24.2 0-13.36 10.74-24.2 24-24.2z" stroke="#5e5e5e" stroke-width="3" fill="#fff"/><use xlink:href="#A" transform="matrix(1,0,0,1,1605.6496062992123,644.2441113983706) translate(7.06666666666667 22.55)"/><path d="M1553.47 655.38c8.83 0 16 8.96 16 20 0 11.05-7.17 20-16 20h-48c-8.84 0-16-8.95-16-20 0-11.04 7.16-20 16-20z" stroke="#5e5e5e" stroke-width="3" fill="#fff"/><use xlink:href="#B" transform="matrix(1,0,0,1,1494.465090260955,660.3829242579519) translate(22.11111111111111 18.6125)"/><path d="M1434.65 638.26c8.84 0 16 8.95 16 20s-7.16 20-16 20h-48c-8.84 0-16-8.95-16-20s7.16-20 16-20z" stroke="#5e5e5e" stroke-width="3" fill="#fff"/><use xlink:href="#C" transform="matrix(1,0,0,1,1375.6496062992123,643.2595984824151) translate(14.62222222222222 18.6125)"/><path d="M1724.65 140c8.84 0 16 8.95 16 20s-7.16 20-16 20h-48c-8.84 0-16-8.95-16-20s7.16-20 16-20z" stroke="#5e5e5e" stroke-width="3" fill="#fff"/><use xlink:href="#D" transform="matrix(1,0,0,1,1665.6496062992123,145) translate(11.466666666666669 18.6125)"/><path d="M1724.65 190.44c8.84 0 16 8.95 16 20 0 11.04-7.16 20-16 20h-48c-8.84 0-16-8.96-16-20 0-11.05 7.16-20 16-20z" stroke="#5e5e5e" stroke-width="3" fill="#fff"/><use xlink:href="#E" transform="matrix(1,0,0,1,1665.6496062992123,195.4384507774256) translate(11 18.6125)"/><path d="M1700.65 188.94" stroke="#5e5e5e" stroke-width="2" fill="none"/><path fill="#5e5e5e"/><path fill="#5e5e5e"/><path d="M1648.15 424.97h-33.8c-3.32 0-6 2.7-6 6v84.93" stroke="#5e5e5e" stroke-width="2" fill="none"/><path d="M1649.14 424.94l.07 1.03h-1.08v-2h1.12zM1609.35 516.9h-2v-1.02h2z" fill="#5e5e5e"/><path d="M1540.65 470.14v45.76" stroke="#5e5e5e" stroke-width="2" fill="none"/><path d="M1541.65 470.17h-2v-1.03h2zM1541.65 516.9h-2v-1.02h2z" fill="#5e5e5e"/><path d="M1700.65 523.92v16c0 3.3-2.7 6-6 6h-71.5" stroke="#5e5e5e" stroke-width="2" fill="none"/><path d="M1701.65 523.95h-2v-1.03h2zM1623.18 546.9h-1.03v-2h1.03z" fill="#5e5e5e"/><path d="M1658.15 594.97h-11.5c-3.32 0-6-2.68-6-6V574.4c0-3.3-2.7-6-6-6h-11.5" stroke="#5e5e5e" stroke-width="2" fill="none"/><path d="M1659.14 594.94l.07 1.03h-1.08v-2h1.12zM1623.18 569.4h-1.03v-2h1.03z" fill="#5e5e5e"/><path d="M1600.38 652.94h-5.43c-3.32 0-6-2.7-6-6V620.9" stroke="#5e5e5e" stroke-width="2" fill="none"/><path d="M1601.3 653.06l-.27.88h-.68v-2h1.6zM1589.95 620.93h-2v-1.03h2z" fill="#5e5e5e"/><path d="M1529.47 652.88v-10c0-3.3-2.7-6-6-6h-10c-3.32 0-6-2.67-6-6v-9.98" stroke="#5e5e5e" stroke-width="2" fill="none"/><path d="M1530.47 653.88h-2v-1.02h2zM1508.47 620.93h-2v-1.03h2z" fill="#5e5e5e"/><path d="M1410.65 635.76V618.6c0-3.3 2.7-6 6-6h41.5" stroke="#5e5e5e" stroke-width="2" fill="none"/><path d="M1411.65 636.76h-2v-1.03h2zM1459.15 612.6l.27 1h-1.3v-2h1.03z" fill="#5e5e5e"/><path d="M1658.15 160h-21.5c-3.3 0-6 2.7-6 6v3.52c0 3.3-2.7 6-6 6h-21.5" stroke="#5e5e5e" stroke-width="2" fill="none"/><path d="M1659.15 159.93l.03 1.07h-1.06v-2h1.14zM1603.18 176.52h-1.03v-2h1.03z" fill="#5e5e5e"/><path d="M1658.15 210.44h-21.5c-3.3 0-6-2.7-6-6v-10.78c0-3.3-2.7-6-6-6h-21.5" stroke="#5e5e5e" stroke-width="2" fill="none"/><path d="M1659.15 210.37l.03 1.07h-1.06v-2h1.14zM1603.18 188.66h-1.03v-2h1.03z" fill="#5e5e5e"/><path d="M1333.15 911.86h44.35" stroke="#5e5e5e" stroke-width="2" fill="none"/><path d="M1333.18 912.86h-1.14l.1-.93-.02-1.07h1.06zM1378.5 912.86h-1.03v-2h1.03z" fill="#5e5e5e"/><path d="M1210.33 911.86h-33.82c-3.3 0-6-2.7-6-6V725.2" stroke="#5e5e5e" stroke-width="2" fill="none"/><path d="M1228.7 921.86l-20-10 20-10M1228.7 911.86h-20M1160.5 715.2h20M1170.5 705.2v20M1160.5 725.2h20" stroke="#5e5e5e" stroke-width="2" fill="#fff"/><path d="M800.65 946.6c0-3.32 2.7-6 6-6h148c3.3 0 6 2.68 6 6v88c0 3.3-2.7 6-6 6h-148c-3.3 0-6-2.7-6-6z" stroke="#5e5e5e" stroke-width="3" fill="#f7daff"/><use xlink:href="#F" transform="matrix(1,0,0,1,812.6496062992123,952.5907087583158) translate(27.907407407407405 41.52777777777778)"/><path d="M724.65 936.38c8.84 0 16 8.96 16 20 0 11.05-7.16 20-16 20h-48c-8.84 0-16-8.95-16-20 0-11.04 7.16-20 16-20z" stroke="#5e5e5e" stroke-width="3" fill="#fff"/><use xlink:href="#b" transform="matrix(1,0,0,1,665.6496062992125,941.3820473409932) translate(28.8 18.425)"/><path d="M1104.65 970.6c8.84 0 16 8.95 16 20 0 11.04-7.16 20-16 20h-48c-8.84 0-16-8.96-16-20 0-11.05 7.16-20 16-20z" stroke="#5e5e5e" stroke-width="3" fill="#fff"/><use xlink:href="#G" transform="matrix(1,0,0,1,1045.6496062992123,975.5907087583158) translate(19.444444444444443 18.425)"/><path d="M910.65 1080.6c11.05 0 20 8.95 20 20 0 11.04-8.95 20-20 20h-60c-11.05 0-20-8.96-20-20 0-11.05 8.95-20 20-20z" stroke="#5e5e5e" stroke-width="3" fill="#fff"/><use xlink:href="#h" transform="matrix(1,0,0,1,835.6496062992123,1085.590708758316) translate(4.133333333333333 18.425)"/><use xlink:href="#i" transform="matrix(1,0,0,1,835.6496062992123,1085.590708758316) translate(20.977777777777778 18.425)"/><use xlink:href="#H" transform="matrix(1,0,0,1,835.6496062992123,1085.590708758316) translate(43.199999999999996 18.425)"/><path d="M1120.65 1076.6c0-3.32 2.7-6 6-6h108c3.3 0 6 2.68 6 6v48c0 3.3-2.7 6-6 6h-108c-3.3 0-6-2.7-6-6z" stroke="#5e5e5e" stroke-width="3" fill="#f4ebff"/><use xlink:href="#I" transform="matrix(1,0,0,1,1132.6496062992123,1082.590708758316) translate(19.66666666666667 22.75)"/><path d="M1350.65 1080.6c11.05 0 20 8.95 20 20 0 11.04-8.95 20-20 20h-60c-11.05 0-20-8.96-20-20 0-11.05 8.95-20 20-20z" stroke="#5e5e5e" stroke-width="3" fill="#fff"/><use xlink:href="#l" transform="matrix(1,0,0,1,1275.6496062992123,1085.590708758316) translate(25.02222222222222 18.425)"/><path d="M1070.65 1080.6c11.05 0 20 8.95 20 20 0 11.04-8.95 20-20 20h-60c-11.05 0-20-8.96-20-20 0-11.05 8.95-20 20-20z" stroke="#5e5e5e" stroke-width="3" fill="#fff"/><use xlink:href="#b" transform="matrix(1,0,0,1,995.6496062992128,1085.590708758316) translate(38.8 18.425)"/><path d="M1118.15 1100.6h-25" stroke="#5e5e5e" stroke-width="2" fill="none"/><path d="M1119.15 1101.6h-1.03v-2h1.03zM1093.18 1101.6h-1.14l.1-.94-.02-1.07h1.06z" fill="#5e5e5e"/><path d="M1268.15 1100.6h-25" stroke="#5e5e5e" stroke-width="2" fill="none"/><path d="M1269.15 1100.52l.03 1.07h-1.06v-2h1.14zM1243.18 1101.6h-1.03v-2h1.03z" fill="#5e5e5e"/><path d="M1040.65 1142.1v14c0 3.3-2.7 6-6 6h-148c-3.3 0-6-2.7-6-6v-15.2" stroke="#5e5e5e" stroke-width="2" fill="none"/><path d="M1030.65 1132.1h20M1040.65 1122.1v20M1030.65 1142.1h20M890.65 1122.54l-10 20-10-20M880.65 1122.54v20" stroke="#5e5e5e" stroke-width="2" fill="#fff"/><path d="M743.15 956.38h21.5c3.3 0 6 2.7 6 6v22.2c0 3.32 2.7 6 6 6h21.5" stroke="#5e5e5e" stroke-width="2" fill="none"/><path d="M743.18 957.38h-1.14l.1-.93-.02-1.07h1.06zM799.15 991.6h-1.03v-2h1.03z" fill="#5e5e5e"/><path d="M1038.15 990.6h-75" stroke="#5e5e5e" stroke-width="2" fill="none"/><path d="M1039.15 990.52l.03 1.07h-1.06v-2h1.14zM963.18 991.6h-1.03v-2h1.03z" fill="#5e5e5e"/><path d="M880.65 1078.1v-35" stroke="#5e5e5e" stroke-width="2" fill="none"/><path d="M881.65 1079.1h-2v-1.03h2zM881.65 1043.12h-2v-1.03h2z" fill="#5e5e5e"/><path d="M230.65 946.6c0-3.32 2.7-6 6-6h148c3.3 0 6 2.68 6 6v87.4c0 3.3-2.7 6-6 6h-148c-3.3 0-6-2.7-6-6z" stroke="#5e5e5e" stroke-width="3" fill="#f7daff"/><use xlink:href="#J" transform="matrix(1,0,0,1,242.64960629921245,952.5907087583159) translate(28.493827160493822 29.65277777777778)"/><use xlink:href="#K" transform="matrix(1,0,0,1,242.64960629921245,952.5907087583159) translate(82.81481481481481 29.65277777777778)"/><use xlink:href="#L" transform="matrix(1,0,0,1,242.64960629921245,952.5907087583159) translate(34.69753086419753 56.31944444444445)"/><path d="M506.65 971.27c13.25 0 24 8.95 24 20 0 11.04-10.75 20-24 20h-72c-13.26 0-24-8.96-24-20 0-11.05 10.74-20 24-20z" stroke="#5e5e5e" stroke-width="3" fill="#fff"/><use xlink:href="#h" transform="matrix(1,0,0,1,415.64960629921245,976.2690552150087) translate(11.488888888888894 18.425)"/><use xlink:href="#i" transform="matrix(1,0,0,1,415.64960629921245,976.2690552150087) translate(28.33333333333334 18.425)"/><use xlink:href="#M" transform="matrix(1,0,0,1,415.64960629921245,976.2690552150087) translate(50.55555555555556 18.425)"/><path d="M910.65 841.94c11.05 0 20 8.96 20 20 0 11.05-8.95 20-20 20h-60c-11.05 0-20-8.95-20-20 0-11.04 8.95-20 20-20z" stroke="#5e5e5e" stroke-width="3" fill="#fff"/><use xlink:href="#h" transform="matrix(1,0,0,1,835.6496062992123,846.9441113983708) translate(2.4000000000000057 18.425)"/><use xlink:href="#i" transform="matrix(1,0,0,1,835.6496062992123,846.9441113983708) translate(19.24444444444445 18.425)"/><use xlink:href="#u" transform="matrix(1,0,0,1,835.6496062992123,846.9441113983708) translate(41.46666666666667 18.425)"/><path d="M880.65 884.44v53.65" stroke="#5e5e5e" stroke-width="2" fill="none"/><path d="M881.65 884.47h-2v-1.03h2zM881.65 939.1h-2v-1.03h2z" fill="#5e5e5e"/><path d="M880.65 821.62v-42.8c0-3.3 2.7-6 6-6h237.5c3.3 0 6-2.7 6-6V725.2" stroke="#5e5e5e" stroke-width="2" fill="none"/><path d="M870.65 840l10-20 10 20M880.65 840v-20M1120.15 715.2h20M1130.15 705.2v20M1120.15 725.2h20" stroke="#5e5e5e" stroke-width="2" fill="#fff"/><path d="M386.65 837.74c13.25 0 24 10.84 24 24.2 0 13.37-10.75 24.2-24 24.2h-72c-13.26 0-24-10.83-24-24.2 0-13.36 10.74-24.2 24-24.2z" stroke="#5e5e5e" stroke-width="3" fill="#fff"/><use xlink:href="#h" transform="matrix(1,0,0,1,295.64960629921245,842.7441113983707) translate(8.37777777777778 22.55)"/><use xlink:href="#i" transform="matrix(1,0,0,1,295.64960629921245,842.7441113983707) translate(25.222222222222225 22.55)"/><use xlink:href="#N" transform="matrix(1,0,0,1,295.64960629921245,842.7441113983707) translate(47.44444444444444 22.55)"/><path d="M166.65 900.6c13.25 0 24 10.83 24 24.2 0 13.36-10.75 24.2-24 24.2h-72c-13.26 0-24-10.84-24-24.2 0-13.37 10.74-24.2 24-24.2z" stroke="#5e5e5e" stroke-width="3" fill="#fff"/><use xlink:href="#O" transform="matrix(1,0,0,1,75.64960629921245,905.5907087583158) translate(35.02722222222222 12.8)"/><use xlink:href="#P" transform="matrix(1,0,0,1,75.64960629921245,905.5907087583158) translate(21.760555555555555 32)"/><path d="M166.65 970.6c13.25 0 24 10.83 24 24.2 0 13.36-10.75 24.2-24 24.2h-72c-13.26 0-24-10.84-24-24.2 0-13.37 10.74-24.2 24-24.2z" stroke="#5e5e5e" stroke-width="3" fill="#fff"/><use xlink:href="#Q" transform="matrix(1,0,0,1,75.64960629921245,975.5907087583158) translate(15.466666666666669 22.55)"/><path d="M166.65 1040.6c13.25 0 24 10.83 24 24.2 0 13.36-10.75 24.2-24 24.2h-72c-13.26 0-24-10.84-24-24.2 0-13.37 10.74-24.2 24-24.2z" stroke="#5e5e5e" stroke-width="3" fill="#fff"/><use xlink:href="#R" transform="matrix(1,0,0,1,75.64960629921245,1045.5907087583157) translate(20.400000000000006 22.55)"/><use xlink:href="#S" transform="matrix(1,0,0,1,75.64960629921245,1045.5907087583157) translate(59.422222222222224 22.55)"/><path d="M550.98 991.27h38.67c3.3 0 6-2.7 6-6v-22.9c0-3.3 2.7-6 6-6h37.5" stroke="#5e5e5e" stroke-width="2" fill="none"/><path d="M532.6 981.27l20 10-20 10M532.6 991.27h20M649.15 946.38v20M659.15 956.38h-20M639.15 946.38v20" stroke="#5e5e5e" stroke-width="2" fill="#fff"/><path d="M393.15 990.3h7c.28 0 .5.2.5.48 0 .27.22.5.5.5h7" stroke="#5e5e5e" stroke-width="2" fill="none"/><path d="M393.18 991.3h-1.03v-2h1.03zM409.15 991.23l.05 1.04h-1.08v-2h1.13z" fill="#5e5e5e"/><path d="M350.65 888.64v18.73c0 3.3-2.7 6-6 6h-28c-3.3 0-6 2.68-6 6v18.72" stroke="#5e5e5e" stroke-width="2" fill="none"/><path d="M351.65 888.67h-2v-1.03h2zM311.65 939.1h-2v-1.03h2z" fill="#5e5e5e"/><path d="M193.15 924.8h68.12c3.32 0 6 2.68 6 6v7.3" stroke="#5e5e5e" stroke-width="2" fill="none"/><path d="M193.18 925.8h-1.13l.1-.98-.06-1.03h1.08zM268.27 939.1h-2v-1.03h2z" fill="#5e5e5e"/><path d="M193.15 994.8h17.34c.08 0 .15-.08.15-.17 0-.1.07-.16.16-.16h17.35" stroke="#5e5e5e" stroke-width="2" fill="none"/><path d="M193.18 995.8h-1.13l.1-.98-.06-1.03h1.08zM229.15 995.47h-1.03v-2h1.03z" fill="#5e5e5e"/><path d="M267.35 1042.5v16.3c0 3.3-2.7 6-6 6h-68.2" stroke="#5e5e5e" stroke-width="2" fill="none"/><path d="M268.35 1042.53h-2v-1.03h2zM193.18 1065.8h-1.13l.1-.98-.06-1.03h1.08z" fill="#5e5e5e"/><path d="M450.06 749.14v27.55c0 3.3-2.7 6-6 6h-87.4c-3.32 0-6 2.68-6 6v28.72" stroke="#5e5e5e" stroke-width="2" fill="none"/><path d="M440.06 739.14h20M450.06 729.14v20M440.06 749.14h20M340.65 835.8l10-20 10 20M350.65 835.8v-20" stroke="#5e5e5e" stroke-width="2" fill="#fff"/><path d="M1380 876.34c0-3.3 2.7-6 6-6h128c3.3 0 6 2.7 6 6v71.03c0 3.32-2.7 6-6 6h-128c-3.3 0-6-2.68-6-6z" stroke="#5e5e5e" stroke-width="3" fill="#f4ebff"/><use xlink:href="#T" transform="matrix(1,0,0,1,1392,882.3441113983705) translate(24.19444444444445 23.5)"/><use xlink:href="#U" transform="matrix(1,0,0,1,1392,882.3441113983705) translate(10.250000000000007 47.49999999999999)"/><path d="M1384.52 520.46c7.6 0 13.76 8.95 13.76 20s-6.16 20-13.76 20h-41.3c-7.6 0-13.75-8.95-13.75-20s6.16-20 13.76-20z" stroke="#5e5e5e" stroke-width="3" fill="#fff"/><use xlink:href="#b" transform="matrix(1,0,0,1,1334.465090260955,525.4604483038099) translate(23.3 18.425)"/><path d="M1400.78 540.46h22.7c3.3 0 6 2.7 6 6v15.94c0 3.32 2.67 6 6 6h22.67" stroke="#5e5e5e" stroke-width="2" fill="none"/><path d="M1400.8 541.46h-1.13l.1-.93-.02-1.07h1.06zM1459.15 569.4h-1.03v-2h1.03z" fill="#5e5e5e"/><path d="M1310.65 746.14c11.05 0 20 10.84 20 24.2 0 13.37-8.95 24.2-20 24.2h-60c-11.05 0-20-10.83-20-24.2 0-13.36 8.95-24.2 20-24.2z" stroke="#5e5e5e" stroke-width="3" fill="#fff"/><use xlink:href="#h" transform="matrix(1,0,0,1,1235.6496062992123,751.1441113983707) translate(27.693888888888885 12.8)"/><use xlink:href="#w" transform="matrix(1,0,0,1,1235.6496062992123,751.1441113983707) translate(44.538333333333334 12.8)"/><use xlink:href="#t" transform="matrix(1,0,0,1,1235.6496062992123,751.1441113983707) translate(11.693888888888887 32)"/><path d="M1280.65 725.82V546.46c0-3.3 2.7-6 6-6h21.3" stroke="#5e5e5e" stroke-width="2" fill="none"/><path d="M1270.65 744.2l10-20 10 20M1280.65 744.2v-20M1317.96 530.46v20M1327.96 540.46h-20M1307.96 530.46v20" stroke="#5e5e5e" stroke-width="2" fill="#fff"/><path d="M1333.15 770.34h118.8c3.32 0 6 2.7 6 6v91.5" stroke="#5e5e5e" stroke-width="2" fill="none"/><path d="M1333.18 771.34h-1.13l.1-.97-.06-1.03h1.08zM1458.96 868.84h-2v-1.02h2z" fill="#5e5e5e"/><path d="M1460.65 152.14c0-3.3 2.7-6 6-6h128c3.3 0 6 2.7 6 6v71.03c0 3.32-2.7 6-6 6h-128c-3.3 0-6-2.68-6-6z" stroke="#5e5e5e" stroke-width="3" fill="#f4ebff"/><use xlink:href="#V" transform="matrix(1,0,0,1,1472.6496062992123,158.14411139837068) translate(23.61111111111112 23.5)"/><use xlink:href="#W" transform="matrix(1,0,0,1,1472.6496062992123,158.14411139837068) translate(26.888888888888896 47.49999999999999)"/><path d="M1445.47 404.62c13.25 0 24 10.84 24 24.2 0 13.37-10.75 24.2-24 24.2h-72c-13.26 0-24-10.83-24-24.2 0-13.36 10.74-24.2 24-24.2z" stroke="#5e5e5e" stroke-width="3" fill="#fff"/><use xlink:href="#X" transform="matrix(1,0,0,1,1354.465090260955,409.6237156848978) translate(48.805 12.8)"/><use xlink:href="#Y" transform="matrix(1,0,0,1,1354.465090260955,409.6237156848978) translate(5.2494444444444515 32)"/><path d="M1551.3 266.14c7.6 0 13.76 8.96 13.76 20 0 11.05-6.16 20-13.77 20H1510c-7.6 0-13.76-8.95-13.76-20 0-11.04 6.16-20 13.76-20z" stroke="#5e5e5e" stroke-width="3" fill="#fff"/><use xlink:href="#b" transform="matrix(1,0,0,1,1501.241864318341,271.1441113983707) translate(23.3 18.425)"/><path d="M1530.65 231.67v31.97" stroke="#5e5e5e" stroke-width="2" fill="none"/><path d="M1531.65 231.7h-2v-1.03h2zM1531.65 264.64h-2v-1.02h2z" fill="#5e5e5e"/><path d="M1474.74 286.14h-59.27c-3.32 0-6 2.7-6 6v92.16" stroke="#5e5e5e" stroke-width="2" fill="none"/><path d="M1484.74 276.14v20M1494.74 286.14h-20M1474.74 276.14v20M1399.47 402.68l10-20 10 20M1409.47 402.68v-20" stroke="#5e5e5e" stroke-width="2" fill="#fff"/><path d="M1409.47 455.52v24.2c0 3.3 2.68 6 6 6h67.57c3.3 0 6 2.68 6 6v24.18" stroke="#5e5e5e" stroke-width="2" fill="none"/><path d="M1410.47 455.55h-2v-1.03h2zM1490.04 516.9h-2v-1.02h2z" fill="#5e5e5e"/><path d="M1620.22 877.66c0-3.32 2.68-6 6-6h108c3.3 0 6 2.68 6 6V943c0 3.3-2.7 6-6 6h-108c-3.32 0-6-2.7-6-6z" stroke="#5e5e5e" stroke-width="3" fill="#f4ebff"/><g><use xlink:href="#Z" transform="matrix(1,0,0,1,1632.216535433071,883.6573754249824) translate(10.083333333333336 15.999999999999998)"/><use xlink:href="#aa" transform="matrix(1,0,0,1,1632.216535433071,883.6573754249824) translate(63.69444444444444 15.999999999999998)"/><use xlink:href="#ab" transform="matrix(1,0,0,1,1632.216535433071,883.6573754249824) translate(6.361111111111121 39.99999999999999)"/></g><path d="M1710.22 989.16c11.04 0 20 8.96 20 20 0 11.05-8.96 20-20 20h-60c-11.05 0-20-8.95-20-20 0-11.04 8.95-20 20-20z" stroke="#5e5e5e" stroke-width="3" fill="#fff"/><g><use xlink:href="#l" transform="matrix(1,0,0,1,1635.216535433071,994.1647245063474) translate(25.02222222222222 18.425)"/></g><path d="M1710.22 791.48c11.04 0 20 8.96 20 20 0 11.05-8.96 20-20 20h-60c-11.05 0-20-8.95-20-20 0-11.04 8.95-20 20-20z" stroke="#5e5e5e" stroke-width="3" fill="#fff"/><g><use xlink:href="#b" transform="matrix(1,0,0,1,1635.216535433071,796.4833596769508) translate(38.8 18.425)"/></g><path d="M1680.22 951.5v35.16" stroke="#5e5e5e" stroke-width="2" fill="none"/><path d="M1681.22 951.52h-2v-1.03h2zM1681.22 987.66h-2v-1.02h2z" fill="#5e5e5e"/><path d="M1680.22 833.98v35.18" stroke="#5e5e5e" stroke-width="2" fill="none"/><path d="M1681.22 834h-2V833h2zM1681.22 870.16h-2v-1.03h2z" fill="#5e5e5e"/><path d="M1751.72 811.48h42.5c3.3 0 6-2.68 6-6V376c0-3.3-2.7-6-6-6h-247.57c-3.3 0-6 2.7-6 6v22.92" stroke="#5e5e5e" stroke-width="2" fill="none"/><path d="M1741.72 821.48v-20M1731.72 811.48h20M1751.72 821.48v-20M1530.65 417.3l10-20 10 20M1540.65 417.3v-20" stroke="#5e5e5e" stroke-width="2" fill="#fff"/><defs><path fill="#333" d="M30-248c87 1 191-15 191 75 0 78-77 80-158 76V0H30v-248zm33 125c57 0 124 11 124-50 0-59-68-47-124-48v98" id="ac"/><path fill="#333" d="M114-163C36-179 61-72 57 0H25l-1-190h30c1 12-1 29 2 39 6-27 23-49 58-41v29" id="ad"/><path fill="#333" d="M100-194c62-1 85 37 85 99 1 63-27 99-86 99S16-35 15-95c0-66 28-99 85-99zM99-20c44 1 53-31 53-75 0-43-8-75-51-75s-53 32-53 75 10 74 51 75" id="ae"/><path fill="#333" d="M85-194c31 0 48 13 60 33l-1-100h32l1 261h-30c-2-10 0-23-3-31C134-8 116 4 85 4 32 4 16-35 15-94c0-66 23-100 70-100zm9 24c-40 0-46 34-46 75 0 40 6 74 45 74 42 0 51-32 51-76 0-42-9-74-50-73" id="af"/><path fill="#333" d="M84 4C-5 8 30-112 23-190h32v120c0 31 7 50 39 49 72-2 45-101 50-169h31l1 190h-30c-1-10 1-25-2-33-11 22-28 36-60 37" id="ag"/><path fill="#333" d="M59-47c-2 24 18 29 38 22v24C64 9 27 4 27-40v-127H5v-23h24l9-43h21v43h35v23H59v120" id="ah"/><path fill="#333" d="M135-143c-3-34-86-38-87 0 15 53 115 12 119 90S17 21 10-45l28-5c4 36 97 45 98 0-10-56-113-15-118-90-4-57 82-63 122-42 12 7 21 19 24 35" id="ai"/><g id="a"><use transform="matrix(0.06172839506172839,0,0,0.06172839506172839,0,0)" xlink:href="#ac"/><use transform="matrix(0.06172839506172839,0,0,0.06172839506172839,14.814814814814813,0)" xlink:href="#ad"/><use transform="matrix(0.06172839506172839,0,0,0.06172839506172839,22.160493827160494,0)" xlink:href="#ae"/><use transform="matrix(0.06172839506172839,0,0,0.06172839506172839,34.50617283950617,0)" xlink:href="#af"/><use transform="matrix(0.06172839506172839,0,0,0.06172839506172839,46.85185185185185,0)" xlink:href="#ag"/><use transform="matrix(0.06172839506172839,0,0,0.06172839506172839,59.197530864197525,0)" xlink:href="#ah"/><use transform="matrix(0.06172839506172839,0,0,0.06172839506172839,65.37037037037037,0)" xlink:href="#ae"/><use transform="matrix(0.06172839506172839,0,0,0.06172839506172839,77.71604938271605,0)" xlink:href="#ai"/></g><path fill="#292929" d="M24-231v-30h32v30H24zM24 0v-190h32V0H24" id="aj"/><path fill="#292929" d="M85-194c31 0 48 13 60 33l-1-100h32l1 261h-30c-2-10 0-23-3-31C134-8 116 4 85 4 32 4 16-35 15-94c0-66 23-100 70-100zm9 24c-40 0-46 34-46 75 0 40 6 74 45 74 42 0 51-32 51-76 0-42-9-74-50-73" id="ak"/><g id="b"><use transform="matrix(0.044444444444444446,0,0,0.044444444444444446,0,0)" xlink:href="#aj"/><use transform="matrix(0.044444444444444446,0,0,0.044444444444444446,3.511111111111111,0)" xlink:href="#ak"/></g><path fill="#292929" d="M100-194c63 0 86 42 84 106H49c0 40 14 67 53 68 26 1 43-12 49-29l28 8c-11 28-37 45-77 45C44 4 14-33 15-96c1-61 26-98 85-98zm52 81c6-60-76-77-97-28-3 7-6 17-6 28h103" id="al"/><path fill="#292929" d="M135-143c-3-34-86-38-87 0 15 53 115 12 119 90S17 21 10-45l28-5c4 36 97 45 98 0-10-56-113-15-118-90-4-57 82-63 122-42 12 7 21 19 24 35" id="am"/><path fill="#292929" d="M96-169c-40 0-48 33-48 73s9 75 48 75c24 0 41-14 43-38l32 2c-6 37-31 61-74 61-59 0-76-41-82-99-10-93 101-131 147-64 4 7 5 14 7 22l-32 3c-4-21-16-35-41-35" id="an"/><path fill="#292929" d="M114-163C36-179 61-72 57 0H25l-1-190h30c1 12-1 29 2 39 6-27 23-49 58-41v29" id="ao"/><path fill="#292929" d="M96-169c-40 0-48 33-48 73s9 75 48 75c24 0 41-14 43-38l32 2c-6 37-31 61-74 61-59 0-76-41-82-99-10-93 101-131 147-64 4 7 5 14 7 22l-32 3c-4-21-16-35-41-35zm3 187c19-1 33 8 33 26 0 31-30 33-64 32V58c18 2 39 4 41-13 1-15-18-13-34-13L87 0h19" id="ap"/><path fill="#292929" d="M141-36C126-15 110 5 73 4 37 3 15-17 15-53c-1-64 63-63 125-63 3-35-9-54-41-54-24 1-41 7-42 31l-33-3c5-37 33-52 76-52 45 0 72 20 72 64v82c-1 20 7 32 28 27v20c-31 9-61-2-59-35zM48-53c0 20 12 33 32 33 41-3 63-29 60-74-43 2-92-5-92 41zm117-205c-3 23-9 48-36 47-26-1-65-44-74 0H39c4-23 8-48 36-47s64 44 74 0h16" id="aq"/><path fill="#292929" d="M100-194c62-1 85 37 85 99 1 63-27 99-86 99S16-35 15-95c0-66 28-99 85-99zM99-20c44 1 53-31 53-75 0-43-8-75-51-75s-53 32-53 75 10 74 51 75" id="ar"/><g id="c"><use transform="matrix(0.044444444444444446,0,0,0.044444444444444446,0,0)" xlink:href="#ak"/><use transform="matrix(0.044444444444444446,0,0,0.044444444444444446,8.88888888888889,0)" xlink:href="#al"/><use transform="matrix(0.044444444444444446,0,0,0.044444444444444446,17.77777777777778,0)" xlink:href="#am"/><use transform="matrix(0.044444444444444446,0,0,0.044444444444444446,25.77777777777778,0)" xlink:href="#an"/><use transform="matrix(0.044444444444444446,0,0,0.044444444444444446,33.77777777777778,0)" xlink:href="#ao"/><use transform="matrix(0.044444444444444446,0,0,0.044444444444444446,39.06666666666667,0)" xlink:href="#aj"/><use transform="matrix(0.044444444444444446,0,0,0.044444444444444446,42.57777777777778,0)" xlink:href="#ap"/><use transform="matrix(0.044444444444444446,0,0,0.044444444444444446,50.57777777777778,0)" xlink:href="#aq"/><use transform="matrix(0.044444444444444446,0,0,0.044444444444444446,59.46666666666667,0)" xlink:href="#ar"/></g><path fill="#292929" d="M115-194c55 1 70 41 70 98S169 2 115 4C84 4 66-9 55-30l1 105H24l-1-265h31l2 30c10-21 28-34 59-34zm-8 174c40 0 45-34 45-75s-6-73-45-74c-42 0-51 32-51 76 0 43 10 73 51 73" id="as"/><g id="d"><use transform="matrix(0.044444444444444446,0,0,0.044444444444444446,0,0)" xlink:href="#as"/><use transform="matrix(0.044444444444444446,0,0,0.044444444444444446,8.88888888888889,0)" xlink:href="#ao"/><use transform="matrix(0.044444444444444446,0,0,0.044444444444444446,14.177777777777779,0)" xlink:href="#al"/><use transform="matrix(0.044444444444444446,0,0,0.044444444444444446,23.066666666666666,0)" xlink:href="#ap"/><use transform="matrix(0.044444444444444446,0,0,0.044444444444444446,31.066666666666666,0)" xlink:href="#ar"/></g><path fill="#292929" d="M145-31C134-9 116 4 85 4 32 4 16-35 15-94c0-59 17-99 70-100 32-1 48 14 60 33 0-11-1-24 2-32h30l-1 268h-32zM93-21c41 0 51-33 51-76s-8-73-50-73c-40 0-46 35-46 75s5 74 45 74" id="at"/><path fill="#292929" d="M59-47c-2 24 18 29 38 22v24C64 9 27 4 27-40v-127H5v-23h24l9-43h21v43h35v23H59v120" id="au"/><path fill="#292929" d="M30 0v-248h187v28H63v79h144v27H63v87h162V0H30" id="av"/><path fill="#292929" d="M84 4C-5 8 30-112 23-190h32v120c0 31 7 50 39 49 72-2 45-101 50-169h31l1 190h-30c-1-10 1-25-2-33-11 22-28 36-60 37" id="aw"/><g id="e"><use transform="matrix(0.044444444444444446,0,0,0.044444444444444446,0,0)" xlink:href="#at"/><use transform="matrix(0.044444444444444446,0,0,0.044444444444444446,8.88888888888889,0)" xlink:href="#au"/><use transform="matrix(0.044444444444444446,0,0,0.044444444444444446,13.333333333333334,0)" xlink:href="#ak"/><use transform="matrix(0.044444444444444446,0,0,0.044444444444444446,22.22222222222222,0)" xlink:href="#av"/><use transform="matrix(0.044444444444444446,0,0,0.044444444444444446,32.888888888888886,0)" xlink:href="#am"/><use transform="matrix(0.044444444444444446,0,0,0.044444444444444446,40.888888888888886,0)" xlink:href="#au"/><use transform="matrix(0.044444444444444446,0,0,0.044444444444444446,45.33333333333333,0)" xlink:href="#ar"/><use transform="matrix(0.044444444444444446,0,0,0.044444444444444446,54.222222222222214,0)" xlink:href="#at"/><use transform="matrix(0.044444444444444446,0,0,0.044444444444444446,63.1111111111111,0)" xlink:href="#aw"/><use transform="matrix(0.044444444444444446,0,0,0.044444444444444446,71.99999999999999,0)" xlink:href="#al"/></g><path fill="#292929" d="M117-194c89-4 53 116 60 194h-32v-121c0-31-8-49-39-48C34-167 62-67 57 0H25l-1-190h30c1 10-1 24 2 32 11-22 29-35 61-36" id="ax"/><path fill="#292929" d="M34 0v-190h32V0H34zM24-211c8-23 27-35 38-54h36v5l-58 49H24" id="ay"/><path fill="#292929" d="M108 0H70L1-190h34L89-25l56-165h34" id="az"/><path fill="#292929" d="M24 0v-261h32V0H24" id="aA"/><g id="f"><use transform="matrix(0.044444444444444446,0,0,0.044444444444444446,0,0)" xlink:href="#ak"/><use transform="matrix(0.044444444444444446,0,0,0.044444444444444446,8.88888888888889,0)" xlink:href="#aj"/><use transform="matrix(0.044444444444444446,0,0,0.044444444444444446,12.4,0)" xlink:href="#am"/><use transform="matrix(0.044444444444444446,0,0,0.044444444444444446,20.4,0)" xlink:href="#as"/><use transform="matrix(0.044444444444444446,0,0,0.044444444444444446,29.28888888888889,0)" xlink:href="#ar"/><use transform="matrix(0.044444444444444446,0,0,0.044444444444444446,38.17777777777778,0)" xlink:href="#ax"/><use transform="matrix(0.044444444444444446,0,0,0.044444444444444446,47.066666666666656,0)" xlink:href="#ay"/><use transform="matrix(0.044444444444444446,0,0,0.044444444444444446,51.511111111111106,0)" xlink:href="#az"/><use transform="matrix(0.044444444444444446,0,0,0.044444444444444446,59.511111111111106,0)" xlink:href="#al"/><use transform="matrix(0.044444444444444446,0,0,0.044444444444444446,68.39999999999999,0)" xlink:href="#aA"/></g><path fill="#292929" d="M141-36C126-15 110 5 73 4 37 3 15-17 15-53c-1-64 63-63 125-63 3-35-9-54-41-54-24 1-41 7-42 31l-33-3c5-37 33-52 76-52 45 0 72 20 72 64v82c-1 20 7 32 28 27v20c-31 9-61-2-59-35zM48-53c0 20 12 33 32 33 41-3 63-29 60-74-43 2-92-5-92 41" id="aB"/><g id="g"><use transform="matrix(0.044444444444444446,0,0,0.044444444444444446,0,0)" xlink:href="#ak"/><use transform="matrix(0.044444444444444446,0,0,0.044444444444444446,8.88888888888889,0)" xlink:href="#al"/><use transform="matrix(0.044444444444444446,0,0,0.044444444444444446,17.77777777777778,0)" xlink:href="#am"/><use transform="matrix(0.044444444444444446,0,0,0.044444444444444446,25.77777777777778,0)" xlink:href="#au"/><use transform="matrix(0.044444444444444446,0,0,0.044444444444444446,30.222222222222225,0)" xlink:href="#aB"/><use transform="matrix(0.044444444444444446,0,0,0.044444444444444446,39.111111111111114,0)" xlink:href="#at"/><use transform="matrix(0.044444444444444446,0,0,0.044444444444444446,48,0)" xlink:href="#aw"/><use transform="matrix(0.044444444444444446,0,0,0.044444444444444446,56.88888888888888,0)" xlink:href="#al"/></g><g id="h"><use transform="matrix(0.044444444444444446,0,0,0.044444444444444446,0,0)" xlink:href="#aj"/><use transform="matrix(0.044444444444444446,0,0,0.044444444444444446,3.511111111111111,0)" xlink:href="#ak"/></g><g id="i"><use transform="matrix(0.044444444444444446,0,0,0.044444444444444446,0,0)" xlink:href="#ak"/><use transform="matrix(0.044444444444444446,0,0,0.044444444444444446,8.88888888888889,0)" xlink:href="#ar"/></g><path fill="#292929" d="M33 0v-38h34V0H33" id="aC"/><g id="j"><use transform="matrix(0.044444444444444446,0,0,0.044444444444444446,0,0)" xlink:href="#ak"/><use transform="matrix(0.044444444444444446,0,0,0.044444444444444446,8.88888888888889,0)" xlink:href="#al"/><use transform="matrix(0.044444444444444446,0,0,0.044444444444444446,17.77777777777778,0)" xlink:href="#as"/><use transform="matrix(0.044444444444444446,0,0,0.044444444444444446,26.666666666666668,0)" xlink:href="#au"/><use transform="matrix(0.044444444444444446,0,0,0.044444444444444446,31.11111111111111,0)" xlink:href="#aC"/></g><path fill="#333" d="M30-248c118-7 216 8 213 122C240-48 200 0 122 0H30v-248zM63-27c89 8 146-16 146-99s-60-101-146-95v194" id="aD"/><path fill="#333" d="M100-194c63 0 86 42 84 106H49c0 40 14 67 53 68 26 1 43-12 49-29l28 8c-11 28-37 45-77 45C44 4 14-33 15-96c1-61 26-98 85-98zm52 81c6-60-76-77-97-28-3 7-6 17-6 28h103" id="aE"/><path fill="#333" d="M115-194c55 1 70 41 70 98S169 2 115 4C84 4 66-9 55-30l1 105H24l-1-265h31l2 30c10-21 28-34 59-34zm-8 174c40 0 45-34 45-75s-6-73-45-74c-42 0-51 32-51 76 0 43 10 73 51 73" id="aF"/><path fill="#333" d="M141-36C126-15 110 5 73 4 37 3 15-17 15-53c-1-64 63-63 125-63 3-35-9-54-41-54-24 1-41 7-42 31l-33-3c5-37 33-52 76-52 45 0 72 20 72 64v82c-1 20 7 32 28 27v20c-31 9-61-2-59-35zM48-53c0 20 12 33 32 33 41-3 63-29 60-74-43 2-92-5-92 41" id="aG"/><path fill="#333" d="M210-169c-67 3-38 105-44 169h-31v-121c0-29-5-50-35-48C34-165 62-65 56 0H25l-1-190h30c1 10-1 24 2 32 10-44 99-50 107 0 11-21 27-35 58-36 85-2 47 119 55 194h-31v-121c0-29-5-49-35-48" id="aH"/><path fill="#333" d="M117-194c89-4 53 116 60 194h-32v-121c0-31-8-49-39-48C34-167 62-67 57 0H25l-1-190h30c1 10-1 24 2 32 11-22 29-35 61-36" id="aI"/><g id="k"><use transform="matrix(0.06172839506172839,0,0,0.06172839506172839,0,0)" xlink:href="#aD"/><use transform="matrix(0.06172839506172839,0,0,0.06172839506172839,15.987654320987653,0)" xlink:href="#aE"/><use transform="matrix(0.06172839506172839,0,0,0.06172839506172839,28.333333333333332,0)" xlink:href="#aF"/><use transform="matrix(0.06172839506172839,0,0,0.06172839506172839,40.67901234567901,0)" xlink:href="#aG"/><use transform="matrix(0.06172839506172839,0,0,0.06172839506172839,53.02469135802469,0)" xlink:href="#ad"/><use transform="matrix(0.06172839506172839,0,0,0.06172839506172839,60.37037037037037,0)" xlink:href="#ah"/><use transform="matrix(0.06172839506172839,0,0,0.06172839506172839,66.5432098765432,0)" xlink:href="#aG"/><use transform="matrix(0.06172839506172839,0,0,0.06172839506172839,78.88888888888889,0)" xlink:href="#aH"/><use transform="matrix(0.06172839506172839,0,0,0.06172839506172839,97.34567901234567,0)" xlink:href="#aE"/><use transform="matrix(0.06172839506172839,0,0,0.06172839506172839,109.69135802469135,0)" xlink:href="#aI"/><use transform="matrix(0.06172839506172839,0,0,0.06172839506172839,122.03703703703704,0)" xlink:href="#ah"/><use transform="matrix(0.06172839506172839,0,0,0.06172839506172839,128.20987654320987,0)" xlink:href="#ae"/><use transform="matrix(0.06172839506172839,0,0,0.06172839506172839,140.55555555555554,0)" xlink:href="#ai"/></g><path fill="#292929" d="M210-169c-67 3-38 105-44 169h-31v-121c0-29-5-50-35-48C34-165 62-65 56 0H25l-1-190h30c1 10-1 24 2 32 10-44 99-50 107 0 11-21 27-35 58-36 85-2 47 119 55 194h-31v-121c0-29-5-49-35-48" id="aJ"/><g id="l"><use transform="matrix(0.044444444444444446,0,0,0.044444444444444446,0,0)" xlink:href="#ax"/><use transform="matrix(0.044444444444444446,0,0,0.044444444444444446,8.88888888888889,0)" xlink:href="#ar"/><use transform="matrix(0.044444444444444446,0,0,0.044444444444444446,17.77777777777778,0)" xlink:href="#aJ"/><use transform="matrix(0.044444444444444446,0,0,0.044444444444444446,31.066666666666666,0)" xlink:href="#al"/></g><path fill="#333" d="M212-179c-10-28-35-45-73-45-59 0-87 40-87 99 0 60 29 101 89 101 43 0 62-24 78-52l27 14C228-24 195 4 139 4 59 4 22-46 18-125c-6-104 99-153 187-111 19 9 31 26 39 46" id="aK"/><path fill="#333" d="M24 0v-261h32V0H24" id="aL"/><path fill="#333" d="M24-231v-30h32v30H24zM24 0v-190h32V0H24" id="aM"/><g id="m"><use transform="matrix(0.06172839506172839,0,0,0.06172839506172839,0,0)" xlink:href="#aK"/><use transform="matrix(0.06172839506172839,0,0,0.06172839506172839,15.987654320987653,0)" xlink:href="#aL"/><use transform="matrix(0.06172839506172839,0,0,0.06172839506172839,20.864197530864196,0)" xlink:href="#aM"/><use transform="matrix(0.06172839506172839,0,0,0.06172839506172839,25.74074074074074,0)" xlink:href="#aE"/><use transform="matrix(0.06172839506172839,0,0,0.06172839506172839,38.08641975308642,0)" xlink:href="#aI"/><use transform="matrix(0.06172839506172839,0,0,0.06172839506172839,50.432098765432094,0)" xlink:href="#ah"/><use transform="matrix(0.06172839506172839,0,0,0.06172839506172839,56.60493827160494,0)" xlink:href="#aE"/><use transform="matrix(0.06172839506172839,0,0,0.06172839506172839,68.95061728395062,0)" xlink:href="#ai"/></g><g id="n"><use transform="matrix(0.044444444444444446,0,0,0.044444444444444446,0,0)" xlink:href="#al"/><use transform="matrix(0.044444444444444446,0,0,0.044444444444444446,8.88888888888889,0)" xlink:href="#aJ"/><use transform="matrix(0.044444444444444446,0,0,0.044444444444444446,22.177777777777777,0)" xlink:href="#aB"/><use transform="matrix(0.044444444444444446,0,0,0.044444444444444446,31.066666666666666,0)" xlink:href="#aj"/><use transform="matrix(0.044444444444444446,0,0,0.044444444444444446,34.577777777777776,0)" xlink:href="#aA"/></g><path fill="#292929" d="M206 0h-36l-40-164L89 0H53L-1-190h32L70-26l43-164h34l41 164 42-164h31" id="aN"/><path fill="#292929" d="M106-169C34-169 62-67 57 0H25v-261h32l-1 103c12-21 28-36 61-36 89 0 53 116 60 194h-32v-121c2-32-8-49-39-48" id="aO"/><g id="o"><use transform="matrix(0.044444444444444446,0,0,0.044444444444444446,0,0)" xlink:href="#aN"/><use transform="matrix(0.044444444444444446,0,0,0.044444444444444446,11.511111111111111,0)" xlink:href="#aO"/><use transform="matrix(0.044444444444444446,0,0,0.044444444444444446,20.4,0)" xlink:href="#aB"/><use transform="matrix(0.044444444444444446,0,0,0.044444444444444446,29.28888888888889,0)" xlink:href="#au"/><use transform="matrix(0.044444444444444446,0,0,0.044444444444444446,33.733333333333334,0)" xlink:href="#am"/><use transform="matrix(0.044444444444444446,0,0,0.044444444444444446,41.733333333333334,0)" xlink:href="#aB"/><use transform="matrix(0.044444444444444446,0,0,0.044444444444444446,50.62222222222223,0)" xlink:href="#as"/><use transform="matrix(0.044444444444444446,0,0,0.044444444444444446,59.511111111111106,0)" xlink:href="#as"/></g><g id="p"><use transform="matrix(0.044444444444444446,0,0,0.044444444444444446,0,0)" xlink:href="#am"/><use transform="matrix(0.044444444444444446,0,0,0.044444444444444446,8,0)" xlink:href="#al"/><use transform="matrix(0.044444444444444446,0,0,0.044444444444444446,16.88888888888889,0)" xlink:href="#ax"/><use transform="matrix(0.044444444444444446,0,0,0.044444444444444446,25.77777777777778,0)" xlink:href="#aO"/><use transform="matrix(0.044444444444444446,0,0,0.044444444444444446,34.66666666666667,0)" xlink:href="#aB"/></g><path fill="#333" d="M30 0v-248h187v28H63v79h144v27H63v87h162V0H30" id="aP"/><path fill="#333" d="M96-169c-40 0-48 33-48 73s9 75 48 75c24 0 41-14 43-38l32 2c-6 37-31 61-74 61-59 0-76-41-82-99-10-93 101-131 147-64 4 7 5 14 7 22l-32 3c-4-21-16-35-41-35zm3 187c19-1 33 8 33 26 0 31-30 33-64 32V58c18 2 39 4 41-13 1-15-18-13-34-13L87 0h19" id="aQ"/><g id="q"><use transform="matrix(0.06172839506172839,0,0,0.06172839506172839,0,0)" xlink:href="#aP"/><use transform="matrix(0.06172839506172839,0,0,0.06172839506172839,14.814814814814813,0)" xlink:href="#aI"/><use transform="matrix(0.06172839506172839,0,0,0.06172839506172839,27.160493827160494,0)" xlink:href="#af"/><use transform="matrix(0.06172839506172839,0,0,0.06172839506172839,39.50617283950617,0)" xlink:href="#aE"/><use transform="matrix(0.06172839506172839,0,0,0.06172839506172839,51.85185185185185,0)" xlink:href="#ad"/><use transform="matrix(0.06172839506172839,0,0,0.06172839506172839,59.197530864197525,0)" xlink:href="#aE"/><use transform="matrix(0.06172839506172839,0,0,0.06172839506172839,71.5432098765432,0)" xlink:href="#aQ"/><use transform="matrix(0.06172839506172839,0,0,0.06172839506172839,82.65432098765432,0)" xlink:href="#ae"/><use transform="matrix(0.06172839506172839,0,0,0.06172839506172839,95,0)" xlink:href="#ai"/></g><g id="r"><use transform="matrix(0.044444444444444446,0,0,0.044444444444444446,0,0)" xlink:href="#au"/><use transform="matrix(0.044444444444444446,0,0,0.044444444444444446,4.444444444444445,0)" xlink:href="#aj"/><use transform="matrix(0.044444444444444446,0,0,0.044444444444444446,7.955555555555556,0)" xlink:href="#as"/><use transform="matrix(0.044444444444444446,0,0,0.044444444444444446,16.844444444444445,0)" xlink:href="#ar"/></g><g id="s"><use transform="matrix(0.044444444444444446,0,0,0.044444444444444446,0,0)" xlink:href="#ak"/><use transform="matrix(0.044444444444444446,0,0,0.044444444444444446,8.88888888888889,0)" xlink:href="#al"/></g><g id="t"><use transform="matrix(0.044444444444444446,0,0,0.044444444444444446,0,0)" xlink:href="#al"/><use transform="matrix(0.044444444444444446,0,0,0.044444444444444446,8.88888888888889,0)" xlink:href="#ax"/><use transform="matrix(0.044444444444444446,0,0,0.044444444444444446,17.77777777777778,0)" xlink:href="#ak"/><use transform="matrix(0.044444444444444446,0,0,0.044444444444444446,26.666666666666668,0)" xlink:href="#al"/><use transform="matrix(0.044444444444444446,0,0,0.044444444444444446,35.55555555555556,0)" xlink:href="#ao"/><use transform="matrix(0.044444444444444446,0,0,0.044444444444444446,40.84444444444445,0)" xlink:href="#al"/><use transform="matrix(0.044444444444444446,0,0,0.044444444444444446,49.733333333333334,0)" xlink:href="#ap"/><use transform="matrix(0.044444444444444446,0,0,0.044444444444444446,57.733333333333334,0)" xlink:href="#ar"/></g><g id="u"><use transform="matrix(0.044444444444444446,0,0,0.044444444444444446,0,0)" xlink:href="#an"/><use transform="matrix(0.044444444444444446,0,0,0.044444444444444446,8,0)" xlink:href="#aA"/><use transform="matrix(0.044444444444444446,0,0,0.044444444444444446,11.511111111111111,0)" xlink:href="#aj"/><use transform="matrix(0.044444444444444446,0,0,0.044444444444444446,15.022222222222222,0)" xlink:href="#al"/><use transform="matrix(0.044444444444444446,0,0,0.044444444444444446,23.91111111111111,0)" xlink:href="#ax"/><use transform="matrix(0.044444444444444446,0,0,0.044444444444444446,32.8,0)" xlink:href="#au"/><use transform="matrix(0.044444444444444446,0,0,0.044444444444444446,37.24444444444444,0)" xlink:href="#al"/></g><g id="v"><use transform="matrix(0.044444444444444446,0,0,0.044444444444444446,0,0)" xlink:href="#au"/><use transform="matrix(0.044444444444444446,0,0,0.044444444444444446,4.444444444444445,0)" xlink:href="#aj"/><use transform="matrix(0.044444444444444446,0,0,0.044444444444444446,7.955555555555556,0)" xlink:href="#as"/><use transform="matrix(0.044444444444444446,0,0,0.044444444444444446,16.844444444444445,0)" xlink:href="#ar"/></g><g id="w"><use transform="matrix(0.044444444444444446,0,0,0.044444444444444446,0,0)" xlink:href="#ak"/><use transform="matrix(0.044444444444444446,0,0,0.044444444444444446,8.88888888888889,0)" xlink:href="#ar"/></g><path fill="#292929" d="M177-190C167-65 218 103 67 71c-23-6-38-20-44-43l32-5c15 47 100 32 89-28v-30C133-14 115 1 83 1 29 1 15-40 15-95c0-56 16-97 71-98 29-1 48 16 59 35 1-10 0-23 2-32h30zM94-22c36 0 50-32 50-73 0-42-14-75-50-75-39 0-46 34-46 75s6 73 46 73" id="aR"/><g id="x"><use transform="matrix(0.044444444444444446,0,0,0.044444444444444446,0,0)" xlink:href="#aA"/><use transform="matrix(0.044444444444444446,0,0,0.044444444444444446,3.511111111111111,0)" xlink:href="#ar"/><use transform="matrix(0.044444444444444446,0,0,0.044444444444444446,12.4,0)" xlink:href="#aR"/><use transform="matrix(0.044444444444444446,0,0,0.044444444444444446,21.28888888888889,0)" xlink:href="#ao"/><use transform="matrix(0.044444444444444446,0,0,0.044444444444444446,26.57777777777778,0)" xlink:href="#aB"/><use transform="matrix(0.044444444444444446,0,0,0.044444444444444446,35.46666666666667,0)" xlink:href="#ak"/><use transform="matrix(0.044444444444444446,0,0,0.044444444444444446,44.355555555555554,0)" xlink:href="#ar"/><use transform="matrix(0.044444444444444446,0,0,0.044444444444444446,53.24444444444443,0)" xlink:href="#aw"/><use transform="matrix(0.044444444444444446,0,0,0.044444444444444446,62.133333333333326,0)" xlink:href="#ao"/><use transform="matrix(0.044444444444444446,0,0,0.044444444444444446,67.42222222222222,0)" xlink:href="#ar"/></g><g id="y"><use transform="matrix(0.044444444444444446,0,0,0.044444444444444446,0,0)" xlink:href="#aA"/><use transform="matrix(0.044444444444444446,0,0,0.044444444444444446,3.511111111111111,0)" xlink:href="#ar"/><use transform="matrix(0.044444444444444446,0,0,0.044444444444444446,12.4,0)" xlink:href="#aR"/><use transform="matrix(0.044444444444444446,0,0,0.044444444444444446,21.28888888888889,0)" xlink:href="#ao"/><use transform="matrix(0.044444444444444446,0,0,0.044444444444444446,26.57777777777778,0)" xlink:href="#aB"/><use transform="matrix(0.044444444444444446,0,0,0.044444444444444446,35.46666666666667,0)" xlink:href="#ak"/><use transform="matrix(0.044444444444444446,0,0,0.044444444444444446,44.355555555555554,0)" xlink:href="#ar"/><use transform="matrix(0.044444444444444446,0,0,0.044444444444444446,53.24444444444443,0)" xlink:href="#aw"/><use transform="matrix(0.044444444444444446,0,0,0.044444444444444446,62.133333333333326,0)" xlink:href="#ao"/><use transform="matrix(0.044444444444444446,0,0,0.044444444444444446,67.42222222222222,0)" xlink:href="#ar"/></g><path fill="#292929" d="M85 4C-4 8 31-112 24-190h32v120c0 31 7 50 39 49 72-2 45-101 50-169h31l1 190h-30c-1-10 1-25-2-33-11 22-28 36-60 37zM73-211c8-23 27-35 38-54h36v5l-58 49H73" id="aS"/><g id="z"><use transform="matrix(0.044444444444444446,0,0,0.044444444444444446,0,0)" xlink:href="#ax"/><use transform="matrix(0.044444444444444446,0,0,0.044444444444444446,8.88888888888889,0)" xlink:href="#aS"/><use transform="matrix(0.044444444444444446,0,0,0.044444444444444446,17.77777777777778,0)" xlink:href="#aJ"/><use transform="matrix(0.044444444444444446,0,0,0.044444444444444446,31.066666666666666,0)" xlink:href="#al"/><use transform="matrix(0.044444444444444446,0,0,0.044444444444444446,39.95555555555556,0)" xlink:href="#ao"/><use transform="matrix(0.044444444444444446,0,0,0.044444444444444446,45.244444444444454,0)" xlink:href="#ar"/></g><g id="A"><use transform="matrix(0.044444444444444446,0,0,0.044444444444444446,0,0)" xlink:href="#an"/><use transform="matrix(0.044444444444444446,0,0,0.044444444444444446,8,0)" xlink:href="#ar"/><use transform="matrix(0.044444444444444446,0,0,0.044444444444444446,16.88888888888889,0)" xlink:href="#aJ"/><use transform="matrix(0.044444444444444446,0,0,0.044444444444444446,30.17777777777778,0)" xlink:href="#as"/><use transform="matrix(0.044444444444444446,0,0,0.044444444444444446,39.06666666666666,0)" xlink:href="#aA"/><use transform="matrix(0.044444444444444446,0,0,0.044444444444444446,42.577777777777776,0)" xlink:href="#al"/><use transform="matrix(0.044444444444444446,0,0,0.044444444444444446,51.46666666666667,0)" xlink:href="#aJ"/><use transform="matrix(0.044444444444444446,0,0,0.044444444444444446,64.75555555555556,0)" xlink:href="#al"/><use transform="matrix(0.044444444444444446,0,0,0.044444444444444446,73.64444444444445,0)" xlink:href="#ax"/><use transform="matrix(0.044444444444444446,0,0,0.044444444444444446,82.53333333333333,0)" xlink:href="#au"/><use transform="matrix(0.044444444444444446,0,0,0.044444444444444446,86.97777777777777,0)" xlink:href="#ar"/></g><g id="B"><use transform="matrix(0.044444444444444446,0,0,0.044444444444444446,0,0)" xlink:href="#an"/><use transform="matrix(0.044444444444444446,0,0,0.044444444444444446,8,0)" xlink:href="#al"/><use transform="matrix(0.044444444444444446,0,0,0.044444444444444446,16.88888888888889,0)" xlink:href="#as"/></g><path fill="#292929" d="M115-194c53 0 69 39 70 98 0 66-23 100-70 100C84 3 66-7 56-30L54 0H23l1-261h32v101c10-23 28-34 59-34zm-8 174c40 0 45-34 45-75 0-40-5-75-45-74-42 0-51 32-51 76 0 43 10 73 51 73" id="aT"/><g id="C"><use transform="matrix(0.044444444444444446,0,0,0.044444444444444446,0,0)" xlink:href="#aT"/><use transform="matrix(0.044444444444444446,0,0,0.044444444444444446,8.88888888888889,0)" xlink:href="#aB"/><use transform="matrix(0.044444444444444446,0,0,0.044444444444444446,17.77777777777778,0)" xlink:href="#aj"/><use transform="matrix(0.044444444444444446,0,0,0.044444444444444446,21.28888888888889,0)" xlink:href="#ao"/><use transform="matrix(0.044444444444444446,0,0,0.044444444444444446,26.57777777777778,0)" xlink:href="#ao"/><use transform="matrix(0.044444444444444446,0,0,0.044444444444444446,31.866666666666667,0)" xlink:href="#ar"/></g><g id="D"><use transform="matrix(0.044444444444444446,0,0,0.044444444444444446,0,0)" xlink:href="#an"/><use transform="matrix(0.044444444444444446,0,0,0.044444444444444446,8,0)" xlink:href="#aj"/><use transform="matrix(0.044444444444444446,0,0,0.044444444444444446,11.511111111111111,0)" xlink:href="#ak"/><use transform="matrix(0.044444444444444446,0,0,0.044444444444444446,20.4,0)" xlink:href="#aB"/><use transform="matrix(0.044444444444444446,0,0,0.044444444444444446,29.28888888888889,0)" xlink:href="#ak"/><use transform="matrix(0.044444444444444446,0,0,0.044444444444444446,38.17777777777778,0)" xlink:href="#al"/></g><g id="E"><use transform="matrix(0.044444444444444446,0,0,0.044444444444444446,0,0)" xlink:href="#al"/><use transform="matrix(0.044444444444444446,0,0,0.044444444444444446,8.88888888888889,0)" xlink:href="#am"/><use transform="matrix(0.044444444444444446,0,0,0.044444444444444446,16.88888888888889,0)" xlink:href="#au"/><use transform="matrix(0.044444444444444446,0,0,0.044444444444444446,21.333333333333336,0)" xlink:href="#aB"/><use transform="matrix(0.044444444444444446,0,0,0.044444444444444446,30.222222222222225,0)" xlink:href="#ak"/><use transform="matrix(0.044444444444444446,0,0,0.044444444444444446,39.111111111111114,0)" xlink:href="#ar"/></g><g id="F"><use transform="matrix(0.06172839506172839,0,0,0.06172839506172839,0,0)" xlink:href="#ac"/><use transform="matrix(0.06172839506172839,0,0,0.06172839506172839,14.814814814814813,0)" xlink:href="#aE"/><use transform="matrix(0.06172839506172839,0,0,0.06172839506172839,27.160493827160494,0)" xlink:href="#af"/><use transform="matrix(0.06172839506172839,0,0,0.06172839506172839,39.50617283950617,0)" xlink:href="#aM"/><use transform="matrix(0.06172839506172839,0,0,0.06172839506172839,44.382716049382715,0)" xlink:href="#af"/><use transform="matrix(0.06172839506172839,0,0,0.06172839506172839,56.72839506172839,0)" xlink:href="#ae"/><use transform="matrix(0.06172839506172839,0,0,0.06172839506172839,69.07407407407408,0)" xlink:href="#ai"/></g><g id="G"><use transform="matrix(0.044444444444444446,0,0,0.044444444444444446,0,0)" xlink:href="#ak"/><use transform="matrix(0.044444444444444446,0,0,0.044444444444444446,8.88888888888889,0)" xlink:href="#aB"/><use transform="matrix(0.044444444444444446,0,0,0.044444444444444446,17.77777777777778,0)" xlink:href="#au"/><use transform="matrix(0.044444444444444446,0,0,0.044444444444444446,22.22222222222222,0)" xlink:href="#aB"/></g><g id="H"><use transform="matrix(0.044444444444444446,0,0,0.044444444444444446,0,0)" xlink:href="#am"/><use transform="matrix(0.044444444444444446,0,0,0.044444444444444446,8,0)" xlink:href="#au"/><use transform="matrix(0.044444444444444446,0,0,0.044444444444444446,12.444444444444445,0)" xlink:href="#aB"/><use transform="matrix(0.044444444444444446,0,0,0.044444444444444446,21.333333333333336,0)" xlink:href="#au"/><use transform="matrix(0.044444444444444446,0,0,0.044444444444444446,25.77777777777778,0)" xlink:href="#aw"/><use transform="matrix(0.044444444444444446,0,0,0.044444444444444446,34.66666666666667,0)" xlink:href="#am"/></g><path fill="#333" d="M185-189c-5-48-123-54-124 2 14 75 158 14 163 119 3 78-121 87-175 55-17-10-28-26-33-46l33-7c5 56 141 63 141-1 0-78-155-14-162-118-5-82 145-84 179-34 5 7 8 16 11 25" id="aU"/><g id="I"><use transform="matrix(0.055555555555555546,0,0,0.055555555555555546,0,0)" xlink:href="#aU"/><use transform="matrix(0.055555555555555546,0,0,0.055555555555555546,13.33333333333333,0)" xlink:href="#ah"/><use transform="matrix(0.055555555555555546,0,0,0.055555555555555546,18.888888888888886,0)" xlink:href="#aG"/><use transform="matrix(0.055555555555555546,0,0,0.055555555555555546,29.999999999999993,0)" xlink:href="#ah"/><use transform="matrix(0.055555555555555546,0,0,0.055555555555555546,35.55555555555555,0)" xlink:href="#ag"/><use transform="matrix(0.055555555555555546,0,0,0.055555555555555546,46.66666666666666,0)" xlink:href="#ai"/></g><path fill="#333" d="M33 0v-248h34V0H33" id="aV"/><g id="J"><use transform="matrix(0.06172839506172839,0,0,0.06172839506172839,0,0)" xlink:href="#aV"/><use transform="matrix(0.06172839506172839,0,0,0.06172839506172839,6.172839506172839,0)" xlink:href="#ah"/><use transform="matrix(0.06172839506172839,0,0,0.06172839506172839,12.345679012345679,0)" xlink:href="#aE"/><use transform="matrix(0.06172839506172839,0,0,0.06172839506172839,24.691358024691358,0)" xlink:href="#aI"/><use transform="matrix(0.06172839506172839,0,0,0.06172839506172839,37.03703703703704,0)" xlink:href="#ai"/></g><g id="K"><use transform="matrix(0.06172839506172839,0,0,0.06172839506172839,0,0)" xlink:href="#af"/><use transform="matrix(0.06172839506172839,0,0,0.06172839506172839,12.345679012345679,0)" xlink:href="#ae"/></g><g id="L"><use transform="matrix(0.06172839506172839,0,0,0.06172839506172839,0,0)" xlink:href="#aF"/><use transform="matrix(0.06172839506172839,0,0,0.06172839506172839,12.345679012345679,0)" xlink:href="#aE"/><use transform="matrix(0.06172839506172839,0,0,0.06172839506172839,24.691358024691358,0)" xlink:href="#af"/><use transform="matrix(0.06172839506172839,0,0,0.06172839506172839,37.03703703703704,0)" xlink:href="#aM"/><use transform="matrix(0.06172839506172839,0,0,0.06172839506172839,41.91358024691358,0)" xlink:href="#af"/><use transform="matrix(0.06172839506172839,0,0,0.06172839506172839,54.25925925925926,0)" xlink:href="#ae"/></g><g id="M"><use transform="matrix(0.044444444444444446,0,0,0.044444444444444446,0,0)" xlink:href="#as"/><use transform="matrix(0.044444444444444446,0,0,0.044444444444444446,8.88888888888889,0)" xlink:href="#al"/><use transform="matrix(0.044444444444444446,0,0,0.044444444444444446,17.77777777777778,0)" xlink:href="#ak"/><use transform="matrix(0.044444444444444446,0,0,0.044444444444444446,26.666666666666668,0)" xlink:href="#aj"/><use transform="matrix(0.044444444444444446,0,0,0.044444444444444446,30.17777777777778,0)" xlink:href="#ak"/><use transform="matrix(0.044444444444444446,0,0,0.044444444444444446,39.06666666666666,0)" xlink:href="#ar"/></g><g id="N"><use transform="matrix(0.044444444444444446,0,0,0.044444444444444446,0,0)" xlink:href="#as"/><use transform="matrix(0.044444444444444446,0,0,0.044444444444444446,8.88888888888889,0)" xlink:href="#ao"/><use transform="matrix(0.044444444444444446,0,0,0.044444444444444446,14.177777777777779,0)" xlink:href="#ar"/><use transform="matrix(0.044444444444444446,0,0,0.044444444444444446,23.066666666666666,0)" xlink:href="#ak"/><use transform="matrix(0.044444444444444446,0,0,0.044444444444444446,31.955555555555556,0)" xlink:href="#aw"/><use transform="matrix(0.044444444444444446,0,0,0.044444444444444446,40.84444444444445,0)" xlink:href="#au"/><use transform="matrix(0.044444444444444446,0,0,0.044444444444444446,45.28888888888889,0)" xlink:href="#ar"/></g><g id="O"><use transform="matrix(0.044444444444444446,0,0,0.044444444444444446,0,0)" xlink:href="#as"/><use transform="matrix(0.044444444444444446,0,0,0.044444444444444446,8.88888888888889,0)" xlink:href="#ao"/><use transform="matrix(0.044444444444444446,0,0,0.044444444444444446,14.177777777777779,0)" xlink:href="#al"/><use transform="matrix(0.044444444444444446,0,0,0.044444444444444446,23.066666666666666,0)" xlink:href="#ap"/><use transform="matrix(0.044444444444444446,0,0,0.044444444444444446,31.066666666666666,0)" xlink:href="#ar"/></g><g id="P"><use transform="matrix(0.044444444444444446,0,0,0.044444444444444446,0,0)" xlink:href="#aj"/><use transform="matrix(0.044444444444444446,0,0,0.044444444444444446,3.511111111111111,0)" xlink:href="#ax"/><use transform="matrix(0.044444444444444446,0,0,0.044444444444444446,12.4,0)" xlink:href="#ak"/><use transform="matrix(0.044444444444444446,0,0,0.044444444444444446,21.28888888888889,0)" xlink:href="#aj"/><use transform="matrix(0.044444444444444446,0,0,0.044444444444444446,24.800000000000004,0)" xlink:href="#az"/><use transform="matrix(0.044444444444444446,0,0,0.044444444444444446,32.800000000000004,0)" xlink:href="#aj"/><use transform="matrix(0.044444444444444446,0,0,0.044444444444444446,36.31111111111112,0)" xlink:href="#ak"/><use transform="matrix(0.044444444444444446,0,0,0.044444444444444446,45.2,0)" xlink:href="#aw"/><use transform="matrix(0.044444444444444446,0,0,0.044444444444444446,54.08888888888889,0)" xlink:href="#aB"/><use transform="matrix(0.044444444444444446,0,0,0.044444444444444446,62.97777777777777,0)" xlink:href="#aA"/></g><g id="Q"><use transform="matrix(0.044444444444444446,0,0,0.044444444444444446,0,0)" xlink:href="#at"/><use transform="matrix(0.044444444444444446,0,0,0.044444444444444446,8.88888888888889,0)" xlink:href="#aw"/><use transform="matrix(0.044444444444444446,0,0,0.044444444444444446,17.77777777777778,0)" xlink:href="#aB"/><use transform="matrix(0.044444444444444446,0,0,0.044444444444444446,26.666666666666668,0)" xlink:href="#ax"/><use transform="matrix(0.044444444444444446,0,0,0.044444444444444446,35.55555555555556,0)" xlink:href="#au"/><use transform="matrix(0.044444444444444446,0,0,0.044444444444444446,40,0)" xlink:href="#aj"/><use transform="matrix(0.044444444444444446,0,0,0.044444444444444446,43.51111111111111,0)" xlink:href="#ak"/><use transform="matrix(0.044444444444444446,0,0,0.044444444444444446,52.4,0)" xlink:href="#aB"/><use transform="matrix(0.044444444444444446,0,0,0.044444444444444446,61.28888888888889,0)" xlink:href="#ak"/><use transform="matrix(0.044444444444444446,0,0,0.044444444444444446,70.17777777777778,0)" xlink:href="#al"/></g><g id="R"><use transform="matrix(0.044444444444444446,0,0,0.044444444444444446,0,0)" xlink:href="#az"/><use transform="matrix(0.044444444444444446,0,0,0.044444444444444446,8,0)" xlink:href="#aB"/><use transform="matrix(0.044444444444444446,0,0,0.044444444444444446,16.88888888888889,0)" xlink:href="#aA"/><use transform="matrix(0.044444444444444446,0,0,0.044444444444444446,20.4,0)" xlink:href="#ar"/><use transform="matrix(0.044444444444444446,0,0,0.044444444444444446,29.28888888888889,0)" xlink:href="#ao"/></g><g id="S"><use transform="matrix(0.044444444444444446,0,0,0.044444444444444446,0,0)" xlink:href="#au"/><use transform="matrix(0.044444444444444446,0,0,0.044444444444444446,4.444444444444445,0)" xlink:href="#ar"/><use transform="matrix(0.044444444444444446,0,0,0.044444444444444446,13.333333333333334,0)" xlink:href="#au"/><use transform="matrix(0.044444444444444446,0,0,0.044444444444444446,17.77777777777778,0)" xlink:href="#aB"/><use transform="matrix(0.044444444444444446,0,0,0.044444444444444446,26.666666666666668,0)" xlink:href="#aA"/></g><path fill="#333" d="M0 4l72-265h28L28 4H0" id="aW"/><g id="T"><use transform="matrix(0.055555555555555546,0,0,0.055555555555555546,0,0)" xlink:href="#aK"/><use transform="matrix(0.055555555555555546,0,0,0.055555555555555546,14.388888888888886,0)" xlink:href="#aL"/><use transform="matrix(0.055555555555555546,0,0,0.055555555555555546,18.777777777777775,0)" xlink:href="#aM"/><use transform="matrix(0.055555555555555546,0,0,0.055555555555555546,23.166666666666664,0)" xlink:href="#aE"/><use transform="matrix(0.055555555555555546,0,0,0.055555555555555546,34.27777777777777,0)" xlink:href="#aI"/><use transform="matrix(0.055555555555555546,0,0,0.055555555555555546,45.38888888888888,0)" xlink:href="#ah"/><use transform="matrix(0.055555555555555546,0,0,0.055555555555555546,50.944444444444436,0)" xlink:href="#aE"/><use transform="matrix(0.055555555555555546,0,0,0.055555555555555546,62.05555555555554,0)" xlink:href="#aW"/></g><g id="U"><use transform="matrix(0.055555555555555546,0,0,0.055555555555555546,0,0)" xlink:href="#aP"/><use transform="matrix(0.055555555555555546,0,0,0.055555555555555546,13.33333333333333,0)" xlink:href="#aI"/><use transform="matrix(0.055555555555555546,0,0,0.055555555555555546,24.44444444444444,0)" xlink:href="#af"/><use transform="matrix(0.055555555555555546,0,0,0.055555555555555546,35.55555555555555,0)" xlink:href="#aE"/><use transform="matrix(0.055555555555555546,0,0,0.055555555555555546,46.66666666666666,0)" xlink:href="#ad"/><use transform="matrix(0.055555555555555546,0,0,0.055555555555555546,53.277777777777764,0)" xlink:href="#aE"/><use transform="matrix(0.055555555555555546,0,0,0.055555555555555546,64.38888888888887,0)" xlink:href="#aQ"/><use transform="matrix(0.055555555555555546,0,0,0.055555555555555546,74.38888888888887,0)" xlink:href="#ae"/><use transform="matrix(0.055555555555555546,0,0,0.055555555555555546,85.49999999999999,0)" xlink:href="#ai"/></g><g id="V"><use transform="matrix(0.055555555555555546,0,0,0.055555555555555546,0,0)" xlink:href="#aK"/><use transform="matrix(0.055555555555555546,0,0,0.055555555555555546,14.388888888888886,0)" xlink:href="#aM"/><use transform="matrix(0.055555555555555546,0,0,0.055555555555555546,18.777777777777775,0)" xlink:href="#af"/><use transform="matrix(0.055555555555555546,0,0,0.055555555555555546,29.888888888888882,0)" xlink:href="#aG"/><use transform="matrix(0.055555555555555546,0,0,0.055555555555555546,40.99999999999999,0)" xlink:href="#af"/><use transform="matrix(0.055555555555555546,0,0,0.055555555555555546,52.1111111111111,0)" xlink:href="#aE"/><use transform="matrix(0.055555555555555546,0,0,0.055555555555555546,63.222222222222214,0)" xlink:href="#aW"/></g><g id="W"><use transform="matrix(0.055555555555555546,0,0,0.055555555555555546,0,0)" xlink:href="#aP"/><use transform="matrix(0.055555555555555546,0,0,0.055555555555555546,13.33333333333333,0)" xlink:href="#ai"/><use transform="matrix(0.055555555555555546,0,0,0.055555555555555546,23.33333333333333,0)" xlink:href="#ah"/><use transform="matrix(0.055555555555555546,0,0,0.055555555555555546,28.888888888888882,0)" xlink:href="#aG"/><use transform="matrix(0.055555555555555546,0,0,0.055555555555555546,39.99999999999999,0)" xlink:href="#af"/><use transform="matrix(0.055555555555555546,0,0,0.055555555555555546,51.1111111111111,0)" xlink:href="#ae"/></g><g id="X"><use transform="matrix(0.044444444444444446,0,0,0.044444444444444446,0,0)" xlink:href="#aj"/><use transform="matrix(0.044444444444444446,0,0,0.044444444444444446,3.511111111111111,0)" xlink:href="#ak"/></g><path fill="#292929" d="M0 4l72-265h28L28 4H0" id="aX"/><g id="Y"><use transform="matrix(0.044444444444444446,0,0,0.044444444444444446,0,0)" xlink:href="#an"/><use transform="matrix(0.044444444444444446,0,0,0.044444444444444446,8,0)" xlink:href="#aj"/><use transform="matrix(0.044444444444444446,0,0,0.044444444444444446,11.511111111111111,0)" xlink:href="#ak"/><use transform="matrix(0.044444444444444446,0,0,0.044444444444444446,20.4,0)" xlink:href="#aB"/><use transform="matrix(0.044444444444444446,0,0,0.044444444444444446,29.28888888888889,0)" xlink:href="#ak"/><use transform="matrix(0.044444444444444446,0,0,0.044444444444444446,38.17777777777778,0)" xlink:href="#al"/><use transform="matrix(0.044444444444444446,0,0,0.044444444444444446,47.066666666666656,0)" xlink:href="#aX"/><use transform="matrix(0.044444444444444446,0,0,0.044444444444444446,51.511111111111106,0)" xlink:href="#al"/><use transform="matrix(0.044444444444444446,0,0,0.044444444444444446,60.39999999999999,0)" xlink:href="#am"/><use transform="matrix(0.044444444444444446,0,0,0.044444444444444446,68.39999999999999,0)" xlink:href="#au"/><use transform="matrix(0.044444444444444446,0,0,0.044444444444444446,72.84444444444443,0)" xlink:href="#aB"/><use transform="matrix(0.044444444444444446,0,0,0.044444444444444446,81.73333333333332,0)" xlink:href="#ak"/><use transform="matrix(0.044444444444444446,0,0,0.044444444444444446,90.6222222222222,0)" xlink:href="#ar"/></g><path fill="#333" d="M127-220V0H93v-220H8v-28h204v28h-85" id="aY"/><g id="Z"><use transform="matrix(0.055555555555555546,0,0,0.055555555555555546,0,0)" xlink:href="#aY"/><use transform="matrix(0.055555555555555546,0,0,0.055555555555555546,11.444444444444443,0)" xlink:href="#aM"/><use transform="matrix(0.055555555555555546,0,0,0.055555555555555546,15.833333333333334,0)" xlink:href="#aF"/><use transform="matrix(0.055555555555555546,0,0,0.055555555555555546,26.944444444444443,0)" xlink:href="#ae"/><use transform="matrix(0.055555555555555546,0,0,0.055555555555555546,38.05555555555555,0)" xlink:href="#ai"/></g><g id="aa"><use transform="matrix(0.055555555555555546,0,0,0.055555555555555546,0,0)" xlink:href="#af"/><use transform="matrix(0.055555555555555546,0,0,0.055555555555555546,11.111111111111109,0)" xlink:href="#aE"/></g><g id="ab"><use transform="matrix(0.055555555555555546,0,0,0.055555555555555546,0,0)" xlink:href="#aE"/><use transform="matrix(0.055555555555555546,0,0,0.055555555555555546,11.111111111111109,0)" xlink:href="#aI"/><use transform="matrix(0.055555555555555546,0,0,0.055555555555555546,22.222222222222218,0)" xlink:href="#af"/><use transform="matrix(0.055555555555555546,0,0,0.055555555555555546,33.33333333333333,0)" xlink:href="#aE"/><use transform="matrix(0.055555555555555546,0,0,0.055555555555555546,44.444444444444436,0)" xlink:href="#ad"/><use transform="matrix(0.055555555555555546,0,0,0.055555555555555546,51.05555555555554,0)" xlink:href="#aE"/><use transform="matrix(0.055555555555555546,0,0,0.055555555555555546,62.16666666666666,0)" xlink:href="#aQ"/><use transform="matrix(0.055555555555555546,0,0,0.055555555555555546,72.16666666666664,0)" xlink:href="#ae"/></g></defs></g></svg>